
<?xml version="1.0" encoding="utf-8"?>
<svg version="1.0" width="50pt" height="60pt" viewBox="0 14.56 574.891 662.185" preserveAspectRatio="xMidYMid meet" xmlns="http://www.w3.org/2000/svg">
  <g transform="translate(0.000000,980.000000) scale(0.100000,-0.100000)" fill="#000000" stroke="none">
    <path d="M 2408.434 9127.549 C 2165.434 9092.549 2043.434 9053.549 1828.434 8941.549 C 1324.434 8677.549 1011.434 8282.549 944.434 7821.549 C 878.434 7372.549 1029.434 6985.549 1489.434 6432.549 C 1707.434 6169.549 2217.434 5642.549 2253.434 5642.549 C 2297.434 5642.549 2910.434 6286.549 3115.434 6548.549 C 3549.434 7104.549 3683.434 7587.549 3497.434 7931.549 C 3423.434 8069.549 3321.434 8164.549 3176.434 8232.549 C 3000.434 8314.549 2764.434 8312.549 2589.434 8226.549 C 2491.434 8178.549 2380.434 8069.549 2308.434 7949.549 C 2262.434 7873.549 2253.434 7864.549 2243.434 7879.549 C 2237.434 7889.549 2214.434 7926.549 2193.434 7962.549 C 2133.434 8062.549 2008.434 8182.549 1918.434 8226.549 C 1750.434 8307.549 1525.434 8313.549 1574.434 8235.549 C 1582.434 8222.549 1606.434 8215.549 1664.434 8209.549 C 1898.434 8187.549 2028.434 8090.549 2172.434 7833.549 C 2221.434 7747.549 2233.434 7732.549 2254.434 7732.549 C 2272.434 7732.549 2284.434 7741.549 2296.434 7763.549 C 2401.434 7955.549 2493.434 8071.549 2585.434 8130.549 C 2675.434 8187.549 2748.434 8206.549 2888.434 8206.549 C 2991.434 8206.549 3024.434 8202.549 3076.434 8183.549 C 3177.434 8148.549 3248.434 8103.549 3323.434 8028.549 C 3544.434 7805.549 3554.434 7477.549 3352.434 7064.549 C 3211.434 6777.549 2948.434 6447.549 2484.434 5974.549 L 2254.434 5741.549 L 2160.434 5834.549 C 2108.434 5885.549 1986.434 6011.549 1887.434 6115.549 C 1490.434 6532.549 1283.434 6803.549 1147.434 7087.549 C 1046.434 7297.549 1014.434 7426.549 1014.434 7622.549 C 1015.434 7883.549 1082.434 8104.549 1229.434 8326.549 C 1324.434 8470.549 1535.434 8669.549 1705.434 8775.549 C 1908.434 8902.549 2092.434 8983.549 2258.434 9016.549 C 2593.434 9085.549 2884.434 9071.549 3143.434 8975.549 C 3616.434 8799.549 3955.434 8349.549 4128.434 7667.549 C 4164.434 7525.549 4170.434 7509.549 4211.434 7458.549 C 4236.434 7428.549 4296.434 7348.549 4344.434 7280.549 C 4392.434 7212.549 4459.434 7121.549 4493.434 7077.549 L 4556.434 6996.549 L 4542.434 6957.549 C 4526.434 6910.549 4482.434 6869.549 4429.434 6853.549 C 4397.434 6844.549 4387.434 6834.549 4374.434 6802.549 C 4342.434 6721.549 4362.434 6606.549 4423.434 6527.549 C 4447.434 6494.549 4448.434 6491.549 4434.434 6463.549 C 4425.434 6447.549 4404.434 6423.549 4386.434 6408.549 C 4368.434 6394.549 4347.434 6377.549 4341.434 6371.549 C 4323.434 6357.549 4325.434 6335.549 4344.434 6320.549 C 4432.434 6250.549 4438.434 6221.549 4378.434 6166.549 C 4329.434 6121.549 4320.434 6082.549 4339.434 5993.549 C 4346.434 5957.549 4351.434 5912.549 4350.434 5894.549 C 4341.434 5759.549 4145.434 5662.549 3879.434 5662.549 C 3695.434 5662.549 3611.434 5635.549 3532.434 5550.549 C 3448.434 5460.549 3391.434 5305.549 3367.434 5101.549 C 3354.434 4991.549 3360.434 4642.549 3376.434 4588.549 C 3387.434 4550.549 3412.434 4533.549 3436.434 4548.549 C 3455.434 4561.549 3455.434 4551.549 3443.434 4817.549 C 3428.434 5151.549 3482.434 5388.549 3600.434 5501.549 C 3652.434 5552.549 3711.434 5572.549 3807.434 5572.549 C 4143.434 5573.549 4368.434 5669.549 4421.434 5833.549 C 4442.434 5896.549 4442.434 5914.549 4423.434 5997.549 C 4406.434 6067.549 4412.434 6096.549 4446.434 6106.549 C 4495.434 6122.549 4517.434 6266.549 4478.434 6315.549 C 4467.434 6329.549 4458.434 6343.549 4458.434 6346.549 C 4458.434 6349.549 4472.434 6371.549 4489.434 6396.549 C 4533.434 6458.549 4539.434 6518.549 4504.434 6559.549 C 4453.434 6620.549 4426.434 6708.549 4444.434 6755.549 C 4447.434 6764.549 4474.434 6782.549 4504.434 6797.549 C 4567.434 6828.549 4604.434 6871.549 4624.434 6938.549 C 4645.434 7010.549 4642.434 7026.549 4590.434 7089.549 C 4563.434 7121.549 4492.434 7217.549 4430.434 7302.549 C 4369.434 7387.549 4301.434 7480.549 4279.434 7507.549 C 4245.434 7549.549 4235.434 7573.549 4217.434 7652.549 C 4154.434 7931.549 4005.434 8288.549 3866.434 8489.549 C 3629.434 8833.549 3343.434 9031.549 2963.434 9114.549 C 2844.434 9140.549 2544.434 9147.549 2408.434 9127.549 Z" style="fill: rgb(255,255,255); stroke-miterlimit: 26; stroke: rgb(66, 165, 245); paint-order: stroke; stroke-width: 80px;"/>
  </g>
  <text style="fill: rgb(255, 255, 255); font-size: 80px; font-weight: 700; letter-spacing: 5px; paint-order: fill; stroke-width: 4px; white-space: pre;" transform="matrix(1, 0, 0, 1, -212.455368, -43.45369)"><tspan x="226.301" y="652.901">π•„π•€β„•π”»π•β„™π”Έβ„‚π”Ό</tspan><tspan x="226.301" dy="1em">β€‹</tspan></text>
</svg>